<mxfile host="Electron" agent="Mozilla/5.0 (X11; Linux x86_64) AppleWebKit/537.36 (KHTML, like Gecko) draw.io/26.2.2 Chrome/134.0.6998.178 Electron/35.1.2 Safari/537.36" version="26.2.2">
  <diagram name="Page-1" id="CTcxdbO-PVF1NvXZ5JHa">
    <mxGraphModel dx="1426" dy="774" grid="1" gridSize="10" guides="1" tooltips="1" connect="1" arrows="1" fold="1" page="1" pageScale="1" pageWidth="827" pageHeight="1169" math="0" shadow="0">
      <root>
        <mxCell id="0" />
        <mxCell id="1" parent="0" />
        <mxCell id="dFtXVKQ9E31ajtSz6Uui-1" value="A" style="rounded=0;whiteSpace=wrap;html=1;" parent="1" vertex="1">
          <mxGeometry x="150" y="60" width="100" height="60" as="geometry" />
        </mxCell>
        <mxCell id="dFtXVKQ9E31ajtSz6Uui-2" value="B" style="rounded=0;whiteSpace=wrap;html=1;" parent="1" vertex="1">
          <mxGeometry x="590" y="60" width="100" height="60" as="geometry" />
        </mxCell>
        <mxCell id="dFtXVKQ9E31ajtSz6Uui-3" value="" style="endArrow=classic;html=1;rounded=0;" parent="1" source="dFtXVKQ9E31ajtSz6Uui-1" edge="1">
          <mxGeometry width="50" height="50" relative="1" as="geometry">
            <mxPoint x="390" y="480" as="sourcePoint" />
            <mxPoint x="200" y="1120" as="targetPoint" />
          </mxGeometry>
        </mxCell>
        <mxCell id="dFtXVKQ9E31ajtSz6Uui-4" value="" style="endArrow=classic;html=1;rounded=0;" parent="1" source="dFtXVKQ9E31ajtSz6Uui-2" edge="1">
          <mxGeometry width="50" height="50" relative="1" as="geometry">
            <mxPoint x="620" y="130" as="sourcePoint" />
            <mxPoint x="640" y="1120" as="targetPoint" />
          </mxGeometry>
        </mxCell>
        <mxCell id="dFtXVKQ9E31ajtSz6Uui-8" value="" style="endArrow=classic;html=1;rounded=0;" parent="1" edge="1">
          <mxGeometry width="50" height="50" relative="1" as="geometry">
            <mxPoint x="200" y="160" as="sourcePoint" />
            <mxPoint x="640" y="240" as="targetPoint" />
          </mxGeometry>
        </mxCell>
        <mxCell id="dFtXVKQ9E31ajtSz6Uui-9" value="C0" style="edgeLabel;html=1;align=center;verticalAlign=middle;resizable=0;points=[];" parent="dFtXVKQ9E31ajtSz6Uui-8" vertex="1" connectable="0">
          <mxGeometry x="-0.2225" relative="1" as="geometry">
            <mxPoint x="9" y="-11" as="offset" />
          </mxGeometry>
        </mxCell>
        <mxCell id="dFtXVKQ9E31ajtSz6Uui-13" value="" style="endArrow=classic;html=1;rounded=0;" parent="1" edge="1">
          <mxGeometry width="50" height="50" relative="1" as="geometry">
            <mxPoint x="640" y="240" as="sourcePoint" />
            <mxPoint x="200" y="320" as="targetPoint" />
          </mxGeometry>
        </mxCell>
        <mxCell id="dFtXVKQ9E31ajtSz6Uui-14" value="ACK0" style="edgeLabel;html=1;align=center;verticalAlign=middle;resizable=0;points=[];" parent="dFtXVKQ9E31ajtSz6Uui-13" vertex="1" connectable="0">
          <mxGeometry x="0.15" relative="1" as="geometry">
            <mxPoint x="27" y="-16" as="offset" />
          </mxGeometry>
        </mxCell>
        <mxCell id="dFtXVKQ9E31ajtSz6Uui-15" value="" style="endArrow=classic;html=1;rounded=0;" parent="1" edge="1">
          <mxGeometry width="50" height="50" relative="1" as="geometry">
            <mxPoint x="200" y="360" as="sourcePoint" />
            <mxPoint x="640" y="440" as="targetPoint" />
          </mxGeometry>
        </mxCell>
        <mxCell id="dFtXVKQ9E31ajtSz6Uui-16" value="A1" style="edgeLabel;html=1;align=center;verticalAlign=middle;resizable=0;points=[];" parent="dFtXVKQ9E31ajtSz6Uui-15" vertex="1" connectable="0">
          <mxGeometry x="-0.2225" relative="1" as="geometry">
            <mxPoint x="9" y="-11" as="offset" />
          </mxGeometry>
        </mxCell>
        <mxCell id="dFtXVKQ9E31ajtSz6Uui-17" value="" style="endArrow=classic;html=1;rounded=0;" parent="1" edge="1">
          <mxGeometry width="50" height="50" relative="1" as="geometry">
            <mxPoint x="640" y="440" as="sourcePoint" />
            <mxPoint x="200" y="520" as="targetPoint" />
          </mxGeometry>
        </mxCell>
        <mxCell id="dFtXVKQ9E31ajtSz6Uui-18" value="ACK1" style="edgeLabel;html=1;align=center;verticalAlign=middle;resizable=0;points=[];" parent="dFtXVKQ9E31ajtSz6Uui-17" vertex="1" connectable="0">
          <mxGeometry x="0.15" relative="1" as="geometry">
            <mxPoint x="27" y="-16" as="offset" />
          </mxGeometry>
        </mxCell>
        <mxCell id="dFtXVKQ9E31ajtSz6Uui-19" value="" style="endArrow=classic;html=1;rounded=0;" parent="1" edge="1">
          <mxGeometry width="50" height="50" relative="1" as="geometry">
            <mxPoint x="200" y="520" as="sourcePoint" />
            <mxPoint x="520" y="600" as="targetPoint" />
          </mxGeometry>
        </mxCell>
        <mxCell id="dFtXVKQ9E31ajtSz6Uui-20" value="T0" style="edgeLabel;html=1;align=center;verticalAlign=middle;resizable=0;points=[];" parent="dFtXVKQ9E31ajtSz6Uui-19" vertex="1" connectable="0">
          <mxGeometry x="-0.2225" relative="1" as="geometry">
            <mxPoint x="29" y="-11" as="offset" />
          </mxGeometry>
        </mxCell>
        <mxCell id="dFtXVKQ9E31ajtSz6Uui-23" value="" style="endArrow=classic;html=1;rounded=0;" parent="1" edge="1">
          <mxGeometry width="50" height="50" relative="1" as="geometry">
            <mxPoint x="200" y="680" as="sourcePoint" />
            <mxPoint x="520" y="760" as="targetPoint" />
          </mxGeometry>
        </mxCell>
        <mxCell id="dFtXVKQ9E31ajtSz6Uui-24" value="T0" style="edgeLabel;html=1;align=center;verticalAlign=middle;resizable=0;points=[];" parent="dFtXVKQ9E31ajtSz6Uui-23" vertex="1" connectable="0">
          <mxGeometry x="-0.2225" relative="1" as="geometry">
            <mxPoint x="29" y="-11" as="offset" />
          </mxGeometry>
        </mxCell>
        <mxCell id="dFtXVKQ9E31ajtSz6Uui-25" value="" style="endArrow=classic;html=1;rounded=0;" parent="1" edge="1">
          <mxGeometry width="50" height="50" relative="1" as="geometry">
            <mxPoint x="200" y="760" as="sourcePoint" />
            <mxPoint x="520" y="840" as="targetPoint" />
          </mxGeometry>
        </mxCell>
        <mxCell id="dFtXVKQ9E31ajtSz6Uui-26" value="T0" style="edgeLabel;html=1;align=center;verticalAlign=middle;resizable=0;points=[];" parent="dFtXVKQ9E31ajtSz6Uui-25" vertex="1" connectable="0">
          <mxGeometry x="-0.2225" relative="1" as="geometry">
            <mxPoint x="29" y="-11" as="offset" />
          </mxGeometry>
        </mxCell>
        <mxCell id="dFtXVKQ9E31ajtSz6Uui-29" value="" style="endArrow=classic;html=1;rounded=0;" parent="1" edge="1">
          <mxGeometry width="50" height="50" relative="1" as="geometry">
            <mxPoint x="200" y="920" as="sourcePoint" />
            <mxPoint x="520" y="1000" as="targetPoint" />
          </mxGeometry>
        </mxCell>
        <mxCell id="dFtXVKQ9E31ajtSz6Uui-30" value="T0" style="edgeLabel;html=1;align=center;verticalAlign=middle;resizable=0;points=[];" parent="dFtXVKQ9E31ajtSz6Uui-29" vertex="1" connectable="0">
          <mxGeometry x="-0.2225" relative="1" as="geometry">
            <mxPoint x="29" y="-11" as="offset" />
          </mxGeometry>
        </mxCell>
        <mxCell id="dFtXVKQ9E31ajtSz6Uui-31" value="" style="endArrow=classic;html=1;rounded=0;" parent="1" edge="1">
          <mxGeometry width="50" height="50" relative="1" as="geometry">
            <mxPoint x="200" y="840" as="sourcePoint" />
            <mxPoint x="520" y="920" as="targetPoint" />
          </mxGeometry>
        </mxCell>
        <mxCell id="dFtXVKQ9E31ajtSz6Uui-32" value="T0" style="edgeLabel;html=1;align=center;verticalAlign=middle;resizable=0;points=[];" parent="dFtXVKQ9E31ajtSz6Uui-31" vertex="1" connectable="0">
          <mxGeometry x="-0.2225" relative="1" as="geometry">
            <mxPoint x="29" y="-11" as="offset" />
          </mxGeometry>
        </mxCell>
        <mxCell id="dFtXVKQ9E31ajtSz6Uui-33" value="" style="endArrow=classic;html=1;rounded=0;" parent="1" edge="1">
          <mxGeometry width="50" height="50" relative="1" as="geometry">
            <mxPoint x="200" y="600" as="sourcePoint" />
            <mxPoint x="520" y="680" as="targetPoint" />
          </mxGeometry>
        </mxCell>
        <mxCell id="dFtXVKQ9E31ajtSz6Uui-34" value="T0" style="edgeLabel;html=1;align=center;verticalAlign=middle;resizable=0;points=[];" parent="dFtXVKQ9E31ajtSz6Uui-33" vertex="1" connectable="0">
          <mxGeometry x="-0.2225" relative="1" as="geometry">
            <mxPoint x="29" y="-11" as="offset" />
          </mxGeometry>
        </mxCell>
        <mxCell id="dFtXVKQ9E31ajtSz6Uui-37" value="" style="curved=1;endArrow=classic;html=1;rounded=0;" parent="1" edge="1">
          <mxGeometry width="50" height="50" relative="1" as="geometry">
            <mxPoint x="200" y="600" as="sourcePoint" />
            <mxPoint x="200" y="680" as="targetPoint" />
            <Array as="points">
              <mxPoint x="70" y="600" />
              <mxPoint x="80" y="660" />
            </Array>
          </mxGeometry>
        </mxCell>
        <mxCell id="dFtXVKQ9E31ajtSz6Uui-38" value="Timeout" style="edgeLabel;html=1;align=center;verticalAlign=middle;resizable=0;points=[];" parent="dFtXVKQ9E31ajtSz6Uui-37" vertex="1" connectable="0">
          <mxGeometry x="0.3716" y="-7" relative="1" as="geometry">
            <mxPoint x="4" y="-41" as="offset" />
          </mxGeometry>
        </mxCell>
        <mxCell id="dFtXVKQ9E31ajtSz6Uui-39" value="" style="curved=1;endArrow=classic;html=1;rounded=0;" parent="1" edge="1">
          <mxGeometry width="50" height="50" relative="1" as="geometry">
            <mxPoint x="200" y="520" as="sourcePoint" />
            <mxPoint x="200" y="600" as="targetPoint" />
            <Array as="points">
              <mxPoint x="70" y="520" />
              <mxPoint x="80" y="580" />
            </Array>
          </mxGeometry>
        </mxCell>
        <mxCell id="dFtXVKQ9E31ajtSz6Uui-40" value="Timeout" style="edgeLabel;html=1;align=center;verticalAlign=middle;resizable=0;points=[];" parent="dFtXVKQ9E31ajtSz6Uui-39" vertex="1" connectable="0">
          <mxGeometry x="0.3716" y="-7" relative="1" as="geometry">
            <mxPoint x="4" y="-41" as="offset" />
          </mxGeometry>
        </mxCell>
        <mxCell id="dFtXVKQ9E31ajtSz6Uui-41" value="" style="curved=1;endArrow=classic;html=1;rounded=0;" parent="1" edge="1">
          <mxGeometry width="50" height="50" relative="1" as="geometry">
            <mxPoint x="200" y="680" as="sourcePoint" />
            <mxPoint x="200" y="760" as="targetPoint" />
            <Array as="points">
              <mxPoint x="70" y="680" />
              <mxPoint x="80" y="740" />
            </Array>
          </mxGeometry>
        </mxCell>
        <mxCell id="dFtXVKQ9E31ajtSz6Uui-42" value="Timeout" style="edgeLabel;html=1;align=center;verticalAlign=middle;resizable=0;points=[];" parent="dFtXVKQ9E31ajtSz6Uui-41" vertex="1" connectable="0">
          <mxGeometry x="0.3716" y="-7" relative="1" as="geometry">
            <mxPoint x="4" y="-41" as="offset" />
          </mxGeometry>
        </mxCell>
        <mxCell id="dFtXVKQ9E31ajtSz6Uui-43" value="" style="curved=1;endArrow=classic;html=1;rounded=0;" parent="1" edge="1">
          <mxGeometry width="50" height="50" relative="1" as="geometry">
            <mxPoint x="200" y="760" as="sourcePoint" />
            <mxPoint x="200" y="840" as="targetPoint" />
            <Array as="points">
              <mxPoint x="70" y="760" />
              <mxPoint x="80" y="820" />
            </Array>
          </mxGeometry>
        </mxCell>
        <mxCell id="dFtXVKQ9E31ajtSz6Uui-44" value="Timeout" style="edgeLabel;html=1;align=center;verticalAlign=middle;resizable=0;points=[];" parent="dFtXVKQ9E31ajtSz6Uui-43" vertex="1" connectable="0">
          <mxGeometry x="0.3716" y="-7" relative="1" as="geometry">
            <mxPoint x="4" y="-41" as="offset" />
          </mxGeometry>
        </mxCell>
        <mxCell id="dFtXVKQ9E31ajtSz6Uui-45" value="" style="curved=1;endArrow=classic;html=1;rounded=0;" parent="1" edge="1">
          <mxGeometry width="50" height="50" relative="1" as="geometry">
            <mxPoint x="200" y="840" as="sourcePoint" />
            <mxPoint x="200" y="920" as="targetPoint" />
            <Array as="points">
              <mxPoint x="70" y="840" />
              <mxPoint x="80" y="900" />
            </Array>
          </mxGeometry>
        </mxCell>
        <mxCell id="dFtXVKQ9E31ajtSz6Uui-46" value="Timeout" style="edgeLabel;html=1;align=center;verticalAlign=middle;resizable=0;points=[];" parent="dFtXVKQ9E31ajtSz6Uui-45" vertex="1" connectable="0">
          <mxGeometry x="0.3716" y="-7" relative="1" as="geometry">
            <mxPoint x="4" y="-41" as="offset" />
          </mxGeometry>
        </mxCell>
        <mxCell id="dFtXVKQ9E31ajtSz6Uui-47" value="" style="curved=1;endArrow=classic;html=1;rounded=0;" parent="1" edge="1">
          <mxGeometry width="50" height="50" relative="1" as="geometry">
            <mxPoint x="200" y="920" as="sourcePoint" />
            <mxPoint x="200" y="1000" as="targetPoint" />
            <Array as="points">
              <mxPoint x="70" y="920" />
              <mxPoint x="80" y="980" />
            </Array>
          </mxGeometry>
        </mxCell>
        <mxCell id="dFtXVKQ9E31ajtSz6Uui-48" value="Timeout" style="edgeLabel;html=1;align=center;verticalAlign=middle;resizable=0;points=[];" parent="dFtXVKQ9E31ajtSz6Uui-47" vertex="1" connectable="0">
          <mxGeometry x="0.3716" y="-7" relative="1" as="geometry">
            <mxPoint x="4" y="-41" as="offset" />
          </mxGeometry>
        </mxCell>
        <mxCell id="AU-ePuOR-7vyVKBi9c2x-2" value="" style="curved=1;endArrow=classic;html=1;rounded=0;" edge="1" parent="1">
          <mxGeometry width="50" height="50" relative="1" as="geometry">
            <mxPoint x="200" y="1000" as="sourcePoint" />
            <mxPoint x="200" y="1080" as="targetPoint" />
            <Array as="points">
              <mxPoint x="70" y="1000" />
              <mxPoint x="80" y="1060" />
            </Array>
          </mxGeometry>
        </mxCell>
        <mxCell id="AU-ePuOR-7vyVKBi9c2x-3" value="Too Many Timeouts&lt;div&gt;Error Detected&lt;/div&gt;" style="edgeLabel;html=1;align=center;verticalAlign=middle;resizable=0;points=[];" vertex="1" connectable="0" parent="AU-ePuOR-7vyVKBi9c2x-2">
          <mxGeometry x="0.3716" y="-7" relative="1" as="geometry">
            <mxPoint x="38" y="-41" as="offset" />
          </mxGeometry>
        </mxCell>
        <mxCell id="AU-ePuOR-7vyVKBi9c2x-4" value="" style="curved=1;endArrow=classic;html=1;rounded=0;" edge="1" parent="1">
          <mxGeometry width="50" height="50" relative="1" as="geometry">
            <mxPoint x="640" y="440" as="sourcePoint" />
            <mxPoint x="640" y="1080" as="targetPoint" />
            <Array as="points">
              <mxPoint x="750" y="520" />
              <mxPoint x="830" y="750" />
              <mxPoint x="850" y="810" />
              <mxPoint x="810" y="1040" />
            </Array>
          </mxGeometry>
        </mxCell>
        <mxCell id="AU-ePuOR-7vyVKBi9c2x-5" value="No Data Received&lt;div&gt;Error Detected&lt;/div&gt;" style="edgeLabel;html=1;align=center;verticalAlign=middle;resizable=0;points=[];" vertex="1" connectable="0" parent="AU-ePuOR-7vyVKBi9c2x-4">
          <mxGeometry x="0.3716" y="-7" relative="1" as="geometry">
            <mxPoint x="-89" y="-147" as="offset" />
          </mxGeometry>
        </mxCell>
      </root>
    </mxGraphModel>
  </diagram>
</mxfile>
